# xmcd
#
# Track frame offsets:
#	150
#	17262
#	34387
#	49944
#	66012
#	83957
#	100322
#	118367
#	134014
#	149646
#	164464
#	180172
#	199565
#
# Disc length: 2832 seconds
#
# Revision: 3
# Processed by: cddbd v1.5.2PL0 Copyright (c) Steve Scherf et al.
# Submitted via: EasyCDDAExtractor 15.3.0.1
#
DISCID=ba0b0e0d
DTITLE=Nek - Esencial
DYEAR=2006
DGENRE=Latin
TTITLE0=Laura No Esta
TTITLE1=Si Se Que Te Tengo A Ti
TTITLE2=Al Menos Ahora
TTITLE3=Para Ti Seria
TTITLE4=Tu Nombre
TTITLE5=No Preguntes Por Que
TTITLE6=Cielo Y Tierra
TTITLE7=A Contramano
TTITLE8=El Año Cero
TTITLE9=Tan Solo Tu
TTITLE10=La Inquietud
TTITLE11=Quedate
TTITLE12=Ya Esta Bien Asi
EXTD=
EXTT0=
EXTT1=
EXTT2=
EXTT3=
EXTT4=
EXTT5=
EXTT6=
EXTT7=
EXTT8=
EXTT9=
EXTT10=
EXTT11=
EXTT12=
PLAYORDER=
